<?xml version="1.0" standalone="no"?>
<!DOCTYPE svg PUBLIC "-//W3C//DTD SVG 20010904//EN"
 "http://www.w3.org/TR/2001/REC-SVG-20010904/DTD/svg10.dtd">
<svg version="1.0" xmlns="http://www.w3.org/2000/svg"
 width="512.000000pt" height="512.000000pt" viewBox="0 0 512.000000 512.000000"
 preserveAspectRatio="xMidYMid meet">

<g transform="translate(0.000000,512.000000) scale(0.100000,-0.100000)"
fill="#2dc653" stroke="none">
<path d="M2453 5106 c-113 -28 -229 -113 -290 -212 -55 -91 -77 -235 -52 -343
34 -151 152 -279 304 -331 80 -27 210 -27 290 0 239 82 369 334 295 571 -72
233 -312 372 -547 315z m241 -135 c75 -33 129 -82 166 -153 45 -85 53 -193 20
-280 -69 -183 -281 -273 -458 -193 -199 89 -264 338 -136 517 87 122 269 171
408 109z"/>
<path d="M2233 4035 c-105 -29 -191 -83 -295 -187 -139 -140 -259 -319 -492
-737 -81 -145 -173 -304 -204 -355 -51 -82 -57 -97 -60 -156 -3 -56 0 -72 25
-120 73 -140 264 -168 379 -57 23 23 106 136 183 251 l141 209 0 -1279 c0
-1420 -3 -1349 66 -1451 38 -56 81 -90 159 -125 39 -17 68 -22 135 -22 104 -1
174 28 246 100 47 47 48 47 62 26 25 -38 111 -94 173 -113 78 -24 131 -24 213
1 87 27 171 103 212 192 l29 63 3 1304 2 1304 141 -209 c77 -115 160 -228 183
-251 150 -145 406 -44 406 160 0 59 -14 96 -71 187 -26 42 -113 195 -194 341
-82 145 -178 311 -214 369 -189 302 -356 472 -530 542 -53 21 -71 23 -351 25
-232 2 -306 -1 -347 -12z m642 -119 c188 -57 380 -296 700 -871 71 -126 155
-274 188 -328 63 -106 72 -144 42 -190 -18 -28 -71 -57 -105 -57 -63 0 -83 23
-295 338 -114 169 -214 313 -223 320 -22 17 -52 15 -74 -5 -17 -15 -18 -44
-18 -510 l0 -493 -530 0 -530 0 0 492 c0 443 -2 493 -17 510 -19 21 -52 23
-75 6 -9 -7 -109 -151 -223 -320 -212 -315 -232 -338 -295 -338 -34 0 -87 29
-105 57 -30 46 -21 84 42 190 33 54 117 202 188 328 267 480 431 705 593 817
91 63 117 67 418 68 208 0 282 -3 319 -14z m213 -2773 l-3 -858 -22 -41 c-76
-142 -283 -163 -391 -40 -17 20 -36 52 -41 73 -7 25 -11 286 -11 757 0 655 -1
721 -17 738 -20 22 -61 23 -85 1 -17 -15 -18 -51 -18 -737 0 -437 -4 -735 -10
-756 -32 -114 -168 -182 -293 -146 -66 19 -110 54 -140 110 l-22 41 -3 858 -2
857 530 0 530 0 -2 -857z"/>
</g>
</svg>
